<svg width="64" height="64" viewBox="0 0 64 64" fill="none" xmlns="http://www.w3.org/2000/svg">
<path d="M32 45.84C35.7296 45.84 38.8998 44.5333 41.5105 41.92C44.1212 39.3067 45.4266 36.1333 45.4266 32.4C45.4266 28.6667 44.1212 25.4933 41.5105 22.88C38.8998 20.2667 35.7296 18.96 32 18.96C28.2704 18.96 25.1002 20.2667 22.4895 22.88C19.8788 25.4933 18.5734 28.6667 18.5734 32.4C18.5734 36.1333 19.8788 39.3067 22.4895 41.92C25.1002 44.5333 28.2704 45.84 32 45.84ZM32 40.464C29.7622 40.464 27.8601 39.68 26.2937 38.112C24.7273 36.544 23.9441 34.64 23.9441 32.4C23.9441 30.16 24.7273 28.256 26.2937 26.688C27.8601 25.12 29.7622 24.336 32 24.336C34.2378 24.336 36.1399 25.12 37.7063 26.688C39.2727 28.256 40.0559 30.16 40.0559 32.4C40.0559 34.64 39.2727 36.544 37.7063 38.112C36.1399 39.68 34.2378 40.464 32 40.464ZM32 54.8C25.3364 54.8 19.2572 53.008 13.7622 49.424C8.26729 45.84 3.92852 41.1111 0.745921 35.2373C0.49728 34.7893 0.3108 34.3289 0.18648 33.856C0.0621601 33.3831 0 32.8978 0 32.4C0 31.9022 0.0621601 31.4169 0.18648 30.944C0.3108 30.4711 0.49728 30.0107 0.745921 29.5627C3.92852 23.6889 8.26729 18.96 13.7622 15.376C19.2572 11.792 25.3364 10 32 10C38.6636 10 44.7428 11.792 50.2378 15.376C55.7327 18.96 60.0715 23.6889 63.2541 29.5627C63.5027 30.0107 63.6892 30.4711 63.8135 30.944C63.9378 31.4169 64 31.9022 64 32.4C64 32.8978 63.9378 33.3831 63.8135 33.856C63.6892 34.3289 63.5027 34.7893 63.2541 35.2373C60.0715 41.1111 55.7327 45.84 50.2378 49.424C44.7428 53.008 38.6636 54.8 32 54.8Z" fill="#DEE0E1"/>
</svg>
